<svg version="1.1" id="Ebene_1" xmlns="http://www.w3.org/2000/svg" x="0" y="0" width="218.7" height="233.9" xml:space="preserve"><path d="M38.4 69.2v28.5c0 4.4.5 7.6 1.4 9.6.9 2 2.6 3.4 4.9 4 2.3.7 6.1 1 11.2 1.1v3.6c-13.4-.3-23.5-.5-30-.5-5.5 0-12.4.1-20.7.3l-5.2.3v-3.3c3.6-.2 6.3-.7 8-1.3 1.7-.7 2.8-1.9 3.4-3.8.6-1.9.9-4.9.9-9V17.4c0-4.2-.3-7.2-.9-9-.6-1.9-1.8-3.2-3.4-3.8-1.7-.7-4.4-1.1-8-1.3V0c5.6.3 13.9.5 24.9.5L43.1.3c2.2-.1 4.7-.2 7.5-.2 14.8 0 26 2.9 33.8 8.8C92.2 14.7 96 22.6 96 32.4c0 6-1.5 11.8-4.6 17.3-3.1 5.5-8.2 10.1-15.5 13.9-7.3 3.7-16.9 5.6-28.9 5.6h-8.6zm3.7-64.8c-1.4.8-2.3 2.1-2.9 4.1-.5 2-.8 4.9-.8 8.9v48.5h7.1c8.9 0 15-2.8 18.4-8.5C67.3 51.7 69 44 69 34.3c0-10.6-1.6-18.4-4.7-23.5-3.1-5-8.3-7.5-15.7-7.5-3 0-5.2.4-6.5 1.1zm168.6 104.5c1.7 1.5 4 2.8 6.7 3.9v3.3c-7.7-.3-16.2-.5-25.6-.5-7.2 0-14.2.2-20.8.5v-3.3c3.1-.2 5.3-.5 6.6-1 1.4-.4 2.1-1.2 2.1-2.3 0-.9-.6-2.2-1.8-4.1l-23.8-38.5c-2.2-3.5-4-5.8-5.5-7.1-1.5-1.2-3.5-1.9-6-2.1v41c0 4.2.3 7.2.9 9 .6 1.9 1.7 3.1 3.4 3.8 1.6.7 4.3 1.1 8 1.3v3.3c-5.9-.3-14.2-.5-24.8-.5-11.7 0-20.3.2-25.9.5v-3.3c3.6-.2 6.3-.7 8-1.3 1.7-.7 2.8-1.9 3.4-3.8.6-1.9.9-4.9.9-9V17.4c0-4.2-.3-7.2-.9-9-.6-1.9-1.8-3.1-3.4-3.8-1.7-.7-4.3-1.1-8-1.3V0c5.6.3 14.2.5 25.9.5 10.6 0 18.9-.2 24.8-.5v3.3c-3.7.2-6.4.7-8 1.3-1.6.7-2.8 1.9-3.4 3.8-.6 1.9-.9 4.9-.9 9v36.9c4.4-.2 8.4-1.5 12-3.9 3.6-2.4 7.7-6.2 12.3-11.5l9.7-11.6c5-5.8 7.5-10.9 7.5-15.3 0-2.6-1.1-4.7-3.2-6.2s-5.1-2.4-8.9-2.6V0c8 .3 16.1.5 24.3.5 6.3 0 11.5-.2 15.4-.5v3.1c-8.7 2.1-16.7 7.3-23.8 15.7l-20.5 24.4 38.2 59.5c1.7 2.6 3.4 4.7 5.1 6.2zM9.8 182v6.4c0 1 .1 1.7.3 2.1.2.5.6.8 1.1.9.5.1 1.4.2 2.5.3v.8c-3-.1-5.2-.1-6.7-.1-1.2 0-2.8 0-4.6.1H1.2v-.7c.8 0 1.4-.1 1.8-.3.4-.1.6-.4.8-.8s.2-1.1.2-2v-18.2c0-.9-.1-1.6-.2-2s-.4-.7-.8-.8c-.4-.1-1-.2-1.8-.3v-.7c1.2.1 3.1.1 5.6.1h5.8c3.3 0 5.8.7 7.5 2 1.7 1.3 2.6 3.1 2.6 5.3 0 1.3-.3 2.6-1 3.9-.7 1.2-1.8 2.3-3.5 3.1-1.6.8-3.8 1.2-6.5 1.2H9.8zm.8-14.5c-.3.2-.5.5-.6.9-.1.4-.2 1.1-.2 2v10.8h1.6c2 0 3.3-.6 4.1-1.9.8-1.3 1.1-3 1.1-5.2 0-2.4-.3-4.1-1-5.2-.7-1.1-1.9-1.7-3.5-1.7-.7 0-1.2.1-1.5.3zM39.4 187l.7.2c-.5 1.6-1.4 2.9-2.6 4-1.3 1.1-2.8 1.7-4.7 1.7-2.6 0-4.6-.8-6.2-2.5-1.5-1.6-2.3-4.1-2.3-7.3 0-3.3.8-5.8 2.5-7.6 1.6-1.7 3.8-2.6 6.5-2.6 4.6 0 6.9 2.7 6.9 8.1H29.8v1.7c0 1.6.2 3 .7 4 .5 1.1 1 1.9 1.8 2.3.7.5 1.5.7 2.3.7 2 .2 3.6-.7 4.8-2.7zm-8.6-11.6c-.6 1.1-.9 2.8-1.1 5h5.8c0-1.9-.1-3.5-.6-4.8s-1.1-1.9-1.9-1.9c-.9 0-1.6.6-2.2 1.7zm18.9-1.9H54v.7h-4.3V189c0 .7.1 1.3.4 1.6.3.3.7.5 1.2.5 1 0 1.9-.7 2.5-2.2l.6.3c-.9 2.5-2.6 3.8-5 3.8-1.6 0-2.8-.4-3.7-1.2-.5-.5-.9-1.2-1-1.9s-.3-1.8-.3-3.2v-12.4h-3.1v-.7h3.1v-4.8c2 0 3.8-.4 5.3-1.2v5.9zM70.6 187l.7.2c-.5 1.6-1.4 2.9-2.6 4-1.3 1.1-2.8 1.7-4.7 1.7-2.6 0-4.6-.8-6.2-2.5-1.5-1.6-2.3-4.1-2.3-7.3 0-3.3.8-5.8 2.5-7.6 1.6-1.7 3.8-2.6 6.5-2.6 4.6 0 6.9 2.7 6.9 8.1H61v1.7c0 1.6.2 3 .7 4 .5 1.1 1 1.9 1.8 2.3.7.5 1.5.7 2.3.7 2 .2 3.6-.7 4.8-2.7zM62 175.4c-.6 1.1-.9 2.8-1.1 5h5.8c0-1.9-.1-3.5-.6-4.8s-1.1-1.9-1.9-1.9c-.9 0-1.6.6-2.2 1.7zm26.3-1.4c.6.7.8 1.5.8 2.4 0 .9-.3 1.6-.8 2.2-.5.6-1.2.9-2.1.9-.8 0-1.5-.2-2-.6-.5-.4-.7-1-.7-1.7 0-1.2.5-2.1 1.6-2.9h-.4c-.2 0-.4 0-.6.1-.9.1-1.7.7-2.4 1.7-.6 1-1 2-1 3v9.7c0 1.1.3 1.9.8 2.3.5.4 1.4.7 2.6.7v.8h-.8c-2.5-.1-4.2-.1-5-.1-.7 0-2.2 0-4.5.1h-.7v-.8c.9 0 1.5-.2 1.8-.6.3-.4.5-1.1.5-2.1v-11.5c0-1.1-.2-1.9-.5-2.5-.3-.5-1-.8-1.8-.8v-.8c.8.1 1.5.1 2.3.1 2.2 0 4-.2 5.3-.5v3.4c.5-1.1 1.1-1.9 2-2.5.9-.6 1.9-1 3-1s2.1.3 2.6 1zm34 16.8c.4.3.9.6 1.5.9v.7c-1.7-.1-3.6-.1-5.7-.1-1.6 0-3.2 0-4.7.1v-.7c.7 0 1.2-.1 1.5-.2.3-.1.5-.3.5-.5s-.1-.5-.4-.9l-5.3-8.6c-.5-.8-.9-1.3-1.2-1.6-.3-.3-.8-.4-1.3-.5v9.2c0 .9.1 1.6.2 2s.4.7.8.8c.4.1 1 .2 1.8.3v.7c-1.3-.1-3.2-.1-5.5-.1-2.6 0-4.5 0-5.8.1v-.7c.8 0 1.4-.1 1.8-.3.4-.1.6-.4.8-.8s.2-1.1.2-2v-18.2c0-.9-.1-1.6-.2-2s-.4-.7-.8-.8c-.4-.1-1-.2-1.8-.3v-.7c1.2.1 3.2.1 5.8.1 2.4 0 4.2 0 5.5-.1v.7c-.8 0-1.4.1-1.8.3-.4.1-.6.4-.8.8s-.2 1.1-.2 2v8.2c1 0 1.9-.3 2.7-.9.8-.5 1.7-1.4 2.7-2.6l2.2-2.6c1.1-1.3 1.7-2.4 1.7-3.4 0-.6-.2-1-.7-1.4-.5-.3-1.1-.5-2-.6v-.7c1.8.1 3.6.1 5.4.1 1.4 0 2.6 0 3.4-.1v.7c-2 .5-3.7 1.6-5.3 3.5l-4.6 5.5 8.5 13.3c.3.6.7 1.1 1.1 1.4zm17.1-16.8c.6.7.8 1.5.8 2.4 0 .9-.3 1.6-.8 2.2-.5.6-1.2.9-2.1.9-.8 0-1.5-.2-2-.6-.5-.4-.7-1-.7-1.7 0-1.2.5-2.1 1.6-2.9h-.4c-.2 0-.4 0-.6.1-.9.1-1.7.7-2.4 1.7-.6 1-1 2-1 3v9.7c0 1.1.3 1.9.8 2.3.5.4 1.4.7 2.6.7v.8h-.8c-2.5-.1-4.2-.1-5-.1-.7 0-2.2 0-4.5.1h-.7v-.8c.9 0 1.5-.2 1.8-.6.3-.4.5-1.1.5-2.1v-11.5c0-1.1-.2-1.9-.5-2.5-.3-.5-1-.8-1.8-.8v-.8c.8.1 1.5.1 2.3.1 2.2 0 4-.2 5.3-.5v3.4c.5-1.1 1.1-1.9 2-2.5.9-.6 1.9-1 3-1s2 .3 2.6 1zm20.2 14.4c0 1.1.2 1.9.5 2.5.4.5 1 .8 1.8.8v.8c-.8-.1-1.5-.1-2.3-.1-2.1 0-3.9.2-5.3.5v-3.3c-1.1 2.3-3.1 3.4-5.9 3.4-1.8 0-3.2-.5-4-1.4-.4-.5-.7-1.1-.9-1.8-.2-.7-.3-1.7-.3-2.9v-9.3c0-1.1-.2-1.9-.5-2.5-.4-.5-1-.8-1.8-.8v-.8c.8.1 1.5.1 2.3.1 2.1 0 3.9-.2 5.3-.5v15.2c0 1 .2 1.8.5 2.3.3.5.9.8 1.7.8 1 0 1.8-.4 2.5-1.2s1-1.8 1-3v-9.6c0-1.1-.2-1.9-.5-2.5-.4-.5-1-.8-1.8-.8v-.8c.8.1 1.5.1 2.3.1 2.1 0 3.9-.2 5.3-.5v15.3zm-10.7-23c.6.5.8 1.2.8 1.9 0 .8-.3 1.4-.8 1.9-.6.5-1.2.8-1.9.8-.8 0-1.4-.3-1.9-.8s-.8-1.2-.8-1.9a2.732 2.732 0 012.7-2.7c.7 0 1.3.3 1.9.8zm8.3 0c.5.5.8 1.2.8 1.9 0 .8-.3 1.4-.8 1.9s-1.2.8-1.9.8c-.8 0-1.4-.3-2-.8-.5-.5-.8-1.2-.8-1.9s.3-1.4.8-1.9 1.2-.8 2-.8c.7 0 1.4.3 1.9.8zm22.5 11.1c-.3-.3-.5-.8-.5-1.4 0-.6.1-1.2.4-1.8-.6.2-1.1.5-1.4.8-.4.3-.7.7-1 1.2.8.9 1.1 2.1 1.1 3.5 0 1.9-.7 3.4-2 4.4-1.3 1-3.1 1.5-5.3 1.5h-.7c-1 .6-1.5 1.2-1.5 1.9 0 .8.5 1.2 1.5 1.2h4c2.1 0 3.9.4 5.1 1.2 1.3.8 1.9 2 1.9 3.6 0 1.2-.4 2.4-1.2 3.4-.8 1-2 1.8-3.6 2.4-1.6.6-3.6.9-5.9.9-2.4 0-4.3-.3-5.7-.9-1.4-.6-2.1-1.5-2.1-2.6 0-.8.3-1.4 1-2 .7-.6 1.7-1.1 3-1.4l.3.6c-.9.7-1.3 1.6-1.3 2.5 0 1 .5 1.8 1.4 2.4.9.5 2.2.8 3.8.8 1.7 0 3.1-.3 4.2-1s1.6-1.6 1.6-2.9c0-.8-.3-1.4-.9-1.9-.6-.5-1.6-.7-3.1-.7h-2.3c-1.6 0-2.8-.3-3.7-.8s-1.3-1.3-1.3-2.4c0-.9.3-1.7 1-2.4.6-.7 1.6-1.4 2.9-2.1-1.8-.2-3.2-.8-4.2-1.8s-1.5-2.3-1.5-4c0-1.9.7-3.4 2-4.4 1.3-1 3.1-1.5 5.3-1.5 2.4 0 4.3.6 5.6 1.7.5-.7 1-1.2 1.7-1.6.7-.4 1.4-.6 2.1-.6.7 0 1.3.2 1.7.6.4.4.6 1 .6 1.7s-.2 1.2-.6 1.6c-.4.4-.8.6-1.3.6-.3.2-.7 0-1.1-.3zm-7.1 6.3c.4-.8.5-2.1.5-4s-.2-3.2-.5-4c-.4-.8-.9-1.2-1.6-1.2-.7 0-1.2.4-1.6 1.2-.4.8-.5 2.1-.5 4s.2 3.2.5 4c.4.8.9 1.2 1.6 1.2.7 0 1.3-.4 1.6-1.2zm26.3 4.2l.7.2c-.5 1.6-1.4 2.9-2.6 4-1.3 1.1-2.8 1.7-4.7 1.7-2.6 0-4.6-.8-6.2-2.5-1.5-1.6-2.3-4.1-2.3-7.3 0-3.3.8-5.8 2.5-7.6 1.6-1.7 3.8-2.6 6.5-2.6 4.6 0 6.9 2.7 6.9 8.1h-10.3v1.7c0 1.6.2 3 .7 4 .5 1.1 1 1.9 1.8 2.3.7.5 1.5.7 2.3.7 1.8.2 3.5-.7 4.7-2.7zm-8.6-11.6c-.6 1.1-.9 2.8-1.1 5h5.8c0-1.9-.1-3.5-.6-4.8-.4-1.3-1.1-1.9-1.9-1.9-.9 0-1.6.6-2.2 1.7zm26.3-1.4c.6.7.8 1.5.8 2.4 0 .9-.3 1.6-.8 2.2-.5.6-1.2.9-2.1.9-.8 0-1.5-.2-2-.6-.5-.4-.7-1-.7-1.7 0-1.2.5-2.1 1.6-2.9h-.4c-.2 0-.4 0-.6.1-.9.1-1.7.7-2.4 1.7-.6 1-1 2-1 3v9.7c0 1.1.3 1.9.8 2.3.5.4 1.4.7 2.6.7v.8h-.8c-2.5-.1-4.2-.1-5-.1-.7 0-2.2 0-4.5.1h-.7v-.8c.9 0 1.5-.2 1.8-.6s.5-1.1.5-2.1v-11.5c0-1.1-.2-1.9-.5-2.5s-1-.8-1.8-.8v-.8c.8.1 1.5.1 2.3.1 2.2 0 4-.2 5.3-.5v3.4c.5-1.1 1.1-1.9 2-2.5.9-.6 1.9-1 3-1 1.2 0 2 .3 2.6 1zM14.9 211.2c.8.3 1.7.9 2.6 1.5.3.2.5.3.6.3.4 0 .7-.6.8-1.9h.7c-.1 1.4-.1 3.8-.1 7.2h-.7c-.2-1.1-.4-2-.6-2.8-.2-.7-.5-1.4-1-1.9-.6-.8-1.4-1.4-2.4-1.8-1-.4-2-.7-3.1-.7-1.4 0-2.6.5-3.7 1.4-1.1.9-1.9 2.2-2.4 3.9-.6 1.7-.9 3.6-.9 5.8 0 3.8.6 6.5 1.8 8.3 1.2 1.8 3.1 2.6 5.7 2.6 1.3 0 2.4-.3 3.3-1 .4-.3.6-.5.7-.7.1-.2.2-.6.2-1v-3c0-.9-.1-1.5-.3-1.9-.2-.4-.5-.7-.9-.8-.4-.1-1.1-.2-2-.3v-.6c1.1.1 2.6.1 4.4.1 1.4 0 2.5 0 3.3-.1v.6c-.5 0-.8.1-1.1.3-.2.1-.4.4-.4.7-.1.4-.1.9-.1 1.7v6.2h-.6c0-.4-.1-.8-.3-1.2-.1-.4-.3-.6-.6-.6-.1 0-.3 0-.4.1-.1.1-.3.2-.7.4-.7.6-1.5 1-2.3 1.3-.8.3-1.7.4-2.6.4-2.2 0-4-.4-5.6-1.3s-2.7-2.2-3.5-3.9c-.8-1.7-1.2-3.7-1.2-6 0-2.4.4-4.5 1.3-6.3.9-1.8 2.1-3.2 3.6-4.2s3.3-1.5 5.2-1.5c1.5.2 2.5.4 3.3.7zm21.1 7.7c1.3 1.4 2 3.6 2 6.4 0 2.9-.7 5-2 6.4-1.3 1.4-3 2.1-5.2 2.1s-3.9-.7-5.2-2.1c-1.3-1.4-2-3.5-2-6.4 0-2.9.7-5 2-6.4 1.3-1.4 3-2.1 5.2-2.1s3.8.7 5.2 2.1zm-8.2.4c-.7 1.3-1.1 3.3-1.1 6s.4 4.7 1.1 6c.7 1.3 1.7 1.9 3 1.9s2.3-.6 3-1.9c.7-1.3 1.1-3.3 1.1-6s-.4-4.7-1.1-6c-.7-1.3-1.7-1.9-3-1.9s-2.3.6-3 1.9zM54.6 230c0 1 .2 1.7.5 2.1.4.4 1 .7 1.9.7v.7c-.7-.1-1.3-.1-2-.1-1.3 0-2.4.1-3.3.4v-3.7c-.5 1.3-1.2 2.3-2.1 2.9-.9.6-1.9.9-3 .9-1.4 0-2.5-.4-3.3-1.2-.4-.4-.6-1-.8-1.6-.2-.7-.2-1.5-.2-2.5v-7.9c0-1-.2-1.7-.5-2.1-.4-.4-1-.7-1.9-.7v-.7c.7.1 1.3.1 2 .1 1.3 0 2.4-.1 3.3-.4v12.4c0 .8 0 1.4.1 1.9s.3.9.7 1.2c.3.3.9.5 1.6.5.8 0 1.5-.3 2.2-.8s1.2-1.2 1.5-2.1c.4-.9.6-1.8.6-2.9v-6.5c0-1-.2-1.7-.5-2.1-.4-.4-1-.7-1.9-.7v-.7c.7.1 1.3.1 2 .1 1.3 0 2.4-.1 3.3-.4V230zm15.9-12.5c.5.5.8 1.1.8 1.8 0 .5-.2 1-.5 1.4-.3.4-.8.6-1.3.6s-.9-.1-1.2-.4c-.3-.3-.5-.7-.5-1.2 0-.7.4-1.3 1.1-1.7-.1-.2-.4-.3-.7-.3-.8 0-1.6.3-2.2 1-.7.6-1.2 1.4-1.6 2.3-.4.9-.6 1.8-.6 2.6v6.7c0 1 .3 1.6.8 2 .6.4 1.4.6 2.5.6v.7h-.8c-2.1-.1-3.5-.1-4.1-.1-.5 0-1.8 0-3.7.1v-.7c.9 0 1.5-.2 1.9-.5.4-.3.5-.9.5-1.8v-9.9c0-1-.2-1.7-.5-2.1-.4-.4-1-.7-1.9-.7v-.7c.7.1 1.3.1 2 .1 1.3 0 2.4-.1 3.3-.4v3.9c.4-1 1-2 1.8-2.8.8-.8 1.7-1.2 2.8-1.2.9 0 1.5.2 2.1.7zm26.9 14.8c.4.3 1 .5 1.9.5v.7c-1.9-.1-3.2-.1-3.8-.1-.6 0-1.8 0-3.5.1v-.7c.8 0 1.3-.2 1.6-.5.3-.3.5-.9.5-1.8v-9.1c0-.8 0-1.4-.1-1.9s-.3-.9-.7-1.2c-.3-.3-.9-.5-1.6-.5-.8 0-1.5.3-2.2.8-.7.5-1.2 1.2-1.5 2.1-.4.9-.6 1.8-.6 2.9v7c0 .9.2 1.5.5 1.8.4.3 1 .5 1.9.5v.7c-1.9-.1-3.2-.1-3.8-.1s-1.8 0-3.5.1v-.7c.8 0 1.3-.2 1.6-.5.3-.3.5-.9.5-1.8v-9.1c0-.8 0-1.4-.1-1.9s-.3-.9-.7-1.2c-.3-.3-.9-.5-1.6-.5-.8 0-1.5.3-2.2.8-.7.5-1.2 1.2-1.5 2.1-.4.9-.6 1.8-.6 2.9v7c0 .9.2 1.5.5 1.8.3.3.8.5 1.6.5v.7c-1.8-.1-2.9-.1-3.5-.1s-1.8 0-3.8.1v-.7c.9 0 1.5-.2 1.9-.5.4-.3.5-.9.5-1.8v-9.9c0-1-.2-1.7-.5-2.1-.4-.4-1-.7-1.9-.7v-.7c.7.1 1.3.1 2 .1 1.3 0 2.4-.1 3.3-.4v3.7c.5-1.3 1.2-2.3 2.1-2.9.9-.6 1.9-.9 3-.9 1.4 0 2.5.4 3.3 1.2.5.5.9 1.4 1 2.5.5-1.3 1.2-2.3 2.2-2.9.9-.6 1.9-.9 3.1-.9 1.4 0 2.5.4 3.3 1.2.4.4.6 1 .8 1.6.2.7.2 1.5.2 2.5v8.4c-.2.9 0 1.5.4 1.8zm16.9-2.6c-.4 1.2-1.1 2.1-2.1 3-1 .8-2.3 1.2-3.8 1.2s-2.8-.3-3.9-1-1.9-1.6-2.5-2.9c-.6-1.2-.9-2.7-.9-4.3 0-1.8.3-3.4.9-4.8.6-1.3 1.4-2.4 2.5-3.1 1.1-.7 2.3-1.1 3.7-1.1 1.9 0 3.3.6 4.4 1.7s1.5 2.9 1.5 5.2h-9.9c-.1.6-.1 1.3-.1 2 0 1.4.2 2.6.7 3.6s1 1.8 1.8 2.4c.7.6 1.5.8 2.3.8 1 0 1.9-.2 2.7-.7.8-.5 1.4-1.3 2-2.4l.7.4zm-8.7-10.9c-.7 1-1.2 2.4-1.3 4.3h6.9c0-1.6-.2-3-.7-4.1s-1.3-1.6-2.3-1.6c-1 0-1.9.4-2.6 1.4zm16-1.6h4.7v.6h-4.7V230c0 .9.2 1.6.5 2 .3.4.8.6 1.5.6s1.2-.3 1.7-.8.9-1.4 1.2-2.6l.6.2c-.5 2.9-1.9 4.3-4.1 4.3-.7 0-1.3-.1-1.8-.3-.5-.2-.9-.4-1.2-.8-.5-.5-.8-1-1-1.7-.2-.7-.3-1.6-.3-2.7v-10.6h-3v-.6h3v-4.8c1.2 0 2.1-.2 2.8-.4v5.4zm18.7 8.7H129V224h11.4v1.9zm20.6-10.7c0 1 0 1.9.1 2.6h-.7c-.2-1.6-.4-2.8-.6-3.6-.3-.8-.7-1.4-1.3-1.7-.6-.4-1.6-.6-2.9-.6h-1.7v17.9c0 .9.1 1.5.3 1.9.2.4.5.7.9.8.4.1 1.1.2 2 .3v.6c-1.1-.1-2.6-.1-4.6-.1-2.1 0-3.7 0-4.7.1v-.6c.9 0 1.6-.1 2-.3.4-.1.7-.4.9-.8.2-.4.3-1 .3-1.9v-17.9h-1.7c-1.3 0-2.3.2-2.9.6-.6.4-1.1.9-1.3 1.7-.3.8-.5 2-.6 3.6h-.7c.1-.7.1-1.5.1-2.6 0-1.2-.1-2.5-.2-4 1.7.1 4.7.1 8.9.1s7.1 0 8.9-.1c-.4 1.4-.5 2.8-.5 4zm7.3 15.3c0 .9.2 1.5.5 1.8.4.3 1 .5 1.9.5v.7c-1.9-.1-3.2-.1-3.8-.1-.6 0-1.9 0-3.8.1v-.7c.9 0 1.5-.2 1.9-.5.4-.3.5-.9.5-1.8v-9.9c0-1-.2-1.7-.5-2.1-.4-.4-1-.7-1.9-.7v-.7c.7.1 1.3.1 2 .1 1.3 0 2.4-.1 3.3-.4v13.7zm-.2-20.6c.4.4.6.9.6 1.4s-.2 1-.6 1.4c-.4.4-.9.6-1.4.6-.5 0-1-.2-1.4-.6-.4-.4-.6-.9-.6-1.4s.2-1 .6-1.4c.4-.4.9-.6 1.4-.6.5 0 1 .2 1.4.6zm11.9 7.2c.6.2 1.1.5 1.4.8.2.2.4.3.6.3.4 0 .6-.5.7-1.4h.7c-.1 1-.1 2.8-.1 5.4h-.7c-.2-1.4-.7-2.5-1.3-3.4-.7-.9-1.6-1.4-2.9-1.4-.8 0-1.4.2-1.9.6-.5.4-.7 1-.7 1.8 0 .7.3 1.3.8 1.8s1.3 1.1 2.4 1.8c.2.1.5.3.9.5 1 .6 1.7 1.2 2.3 1.7.6.5 1.1 1 1.4 1.7.4.6.6 1.4.6 2.2 0 1.4-.5 2.5-1.6 3.2-1 .8-2.3 1.2-3.8 1.2-.9 0-1.8-.1-2.5-.4-.5-.2-.9-.5-1.3-.9-.1-.1-.2-.1-.3-.1-.1 0-.3.1-.4.3-.1.2-.2.5-.3.9h-.7c.1-1.2.1-3.3.1-6.3h.7c.2 2 .7 3.4 1.3 4.4.6 1 1.6 1.5 3.1 1.5.7 0 1.4-.2 2-.7.6-.5.9-1.2.9-2.3 0-.8-.3-1.5-.8-2.1-.6-.6-1.5-1.2-2.7-2-1-.7-1.8-1.2-2.4-1.6-.6-.4-1-.9-1.4-1.5-.4-.6-.6-1.3-.6-2.1 0-1.3.4-2.3 1.3-3 .9-.7 2-1 3.3-1 .6-.2 1.3-.1 1.9.1zm17.9.7c1 .7 1.5 1.5 1.5 2.4 0 .5-.2 1-.5 1.3-.3.3-.7.5-1.2.5s-.9-.1-1.2-.4c-.3-.3-.5-.7-.5-1.1 0-.4.1-.8.4-1.1s.6-.5.9-.6c-.2-.4-.6-.7-1.1-.9-.5-.3-1.1-.4-1.7-.4-.8 0-1.5.2-2.2.7-.7.5-1.2 1.3-1.7 2.5s-.7 2.7-.7 4.5c0 2.6.4 4.5 1.3 5.7s1.9 1.8 3.3 1.8c.9 0 1.8-.3 2.6-.8s1.5-1.3 2-2.5l.6.2c-.4 1.2-1 2.2-2 3.1-1 .9-2.2 1.3-3.8 1.3-1.3 0-2.5-.3-3.5-1-1.1-.7-1.9-1.6-2.5-2.9s-.9-2.7-.9-4.4c0-1.7.3-3.2.9-4.5s1.5-2.4 2.6-3.1 2.4-1.1 3.8-1.1c1.4-.2 2.6.1 3.6.8zm8.7 2.7c.5-1.3 1.3-2.3 2.2-2.9s2-.9 3.2-.9c1.5 0 2.6.4 3.3 1.2.4.4.7.9.9 1.6s.3 1.5.3 2.6v8.4c0 .9.2 1.5.5 1.8.4.3 1 .5 1.9.5v.7c-1.9-.1-3.2-.1-3.8-.1s-1.8 0-3.5.1v-.7c.8 0 1.3-.2 1.6-.5.3-.3.5-.9.5-1.8v-9.1c0-1.2-.2-2.1-.5-2.7-.3-.6-1-.9-2-.9-.9 0-1.6.2-2.3.7s-1.2 1.2-1.6 2c-.4.9-.6 1.9-.6 2.9v7c0 .9.2 1.5.5 1.8s.8.5 1.6.5v.7c-1.8-.1-2.9-.1-3.5-.1s-1.8 0-3.8.1v-.7c.9 0 1.5-.2 1.9-.5s.5-.9.5-1.8v-18c0-1-.2-1.7-.5-2.1-.4-.4-1-.7-1.9-.7v-.7c.7.1 1.3.1 2 .1 1.3 0 2.4-.1 3.3-.4v11.9z" fill="#302b26"/><path fill="#ac9764" d="M0 135.7h217.2v8.2H0z"/></svg>