<svg width="25" height="26" xmlns="http://www.w3.org/2000/svg"><g id="Page-1" stroke="none" stroke-width="1" fill="none" fill-rule="evenodd"><g id="icon" fill="#111B3C" fill-rule="nonzero"><path d="M24.046 14.254c-.077.375-.333.725-.804.612-1.695-.401-4.351-.521-5.924-.14-.578.14-.848-.112-1.065-.803-.541-1.717-1.395-3.787-1.211-6.439.411-5.941 2.864-7.586 4.712-7.479 1.848.107 6.597 3.044 4.292 14.249zm-7.602 3.545s-.331 1.031-.517 2.71c-.308 2.777.289 4.704 3.001 5.094 2.288.33 3.757-1.39 4.063-4.167.185-1.678.201-2.749.201-2.749l-6.748-.888zM5.89.005c1.848-.106 4.301 1.538 4.712 7.479.184 2.652-.67 4.723-1.211 6.439-.218.69-.487.942-1.065.803-1.573-.381-4.229-.262-5.924.14-.471.112-.727-.237-.804-.612C-.707 3.049 4.043.112 5.89.005zM2.451 18.687s.017 1.071.201 2.749c.307 2.777 1.775 4.497 4.063 4.167 2.712-.39 3.309-2.316 3.001-5.094-.186-1.679-.517-2.71-.517-2.71l-6.748.888z" id="Shape"/></g></g></svg>