<?xml version="1.0" encoding="utf-8"?>
<!-- Generator: Adobe Illustrator 24.0.1, SVG Export Plug-In . SVG Version: 6.00 Build 0)  -->
<svg version="1.1" id="Ebene_1" xmlns="http://www.w3.org/2000/svg" xmlns:xlink="http://www.w3.org/1999/xlink" x="0px" y="0px"
	 width="218.7px" height="233.9px" viewBox="0 0 218.7 233.9" style="enable-background:new 0 0 218.7 233.9;" xml:space="preserve"
	>
<style type="text/css">
	.st0{fill:#302B26;}
	.st1{fill:#AC9764;}
</style>
<g>
	<path class="st0" d="M38.4,69.2v28.5c0,4.4,0.5,7.6,1.4,9.6c0.9,2,2.6,3.4,4.9,4c2.3,0.7,6.1,1,11.2,1.1v3.6
		c-13.4-0.3-23.5-0.5-30-0.5c-5.5,0-12.4,0.1-20.7,0.3L0,116.1v-3.3c3.6-0.2,6.3-0.7,8-1.3c1.7-0.7,2.8-1.9,3.4-3.8
		c0.6-1.9,0.9-4.9,0.9-9V17.4c0-4.2-0.3-7.2-0.9-9C10.8,6.5,9.6,5.2,8,4.6C6.3,3.9,3.6,3.5,0,3.3V0c5.6,0.3,13.9,0.5,24.9,0.5
		l18.2-0.2c2.2-0.1,4.7-0.2,7.5-0.2c14.8,0,26,2.9,33.8,8.8c7.8,5.8,11.6,13.7,11.6,23.5c0,6-1.5,11.8-4.6,17.3
		c-3.1,5.5-8.2,10.1-15.5,13.9c-7.3,3.7-16.9,5.6-28.9,5.6H38.4z M42.1,4.4c-1.4,0.8-2.3,2.1-2.9,4.1c-0.5,2-0.8,4.9-0.8,8.9v48.5
		h7.1c8.9,0,15-2.8,18.4-8.5c3.4-5.7,5.1-13.4,5.1-23.1c0-10.6-1.6-18.4-4.7-23.5c-3.1-5-8.3-7.5-15.7-7.5
		C45.6,3.3,43.4,3.7,42.1,4.4z"/>
	<path class="st0" d="M210.7,108.9c1.7,1.5,4,2.8,6.7,3.9v3.3c-7.7-0.3-16.2-0.5-25.6-0.5c-7.2,0-14.2,0.2-20.8,0.5v-3.3
		c3.1-0.2,5.3-0.5,6.6-1c1.4-0.4,2.1-1.2,2.1-2.3c0-0.9-0.6-2.2-1.8-4.1l-23.8-38.5c-2.2-3.5-4-5.8-5.5-7.1c-1.5-1.2-3.5-1.9-6-2.1
		v41c0,4.2,0.3,7.2,0.9,9c0.6,1.9,1.7,3.1,3.4,3.8c1.6,0.7,4.3,1.1,8,1.3v3.3c-5.9-0.3-14.2-0.5-24.8-0.5c-11.7,0-20.3,0.2-25.9,0.5
		v-3.3c3.6-0.2,6.3-0.7,8-1.3c1.7-0.7,2.8-1.9,3.4-3.8c0.6-1.9,0.9-4.9,0.9-9V17.4c0-4.2-0.3-7.2-0.9-9c-0.6-1.9-1.8-3.1-3.4-3.8
		c-1.7-0.7-4.3-1.1-8-1.3V0c5.6,0.3,14.2,0.5,25.9,0.5c10.6,0,18.9-0.2,24.8-0.5v3.3c-3.7,0.2-6.4,0.7-8,1.3
		c-1.6,0.7-2.8,1.9-3.4,3.8c-0.6,1.9-0.9,4.9-0.9,9v36.9c4.4-0.2,8.4-1.5,12-3.9c3.6-2.4,7.7-6.2,12.3-11.5l9.7-11.6
		c5-5.8,7.5-10.9,7.5-15.3c0-2.6-1.1-4.7-3.2-6.2c-2.1-1.5-5.1-2.4-8.9-2.6V0c8,0.3,16.1,0.5,24.3,0.5c6.3,0,11.5-0.2,15.4-0.5v3.1
		c-8.7,2.1-16.7,7.3-23.8,15.7l-20.5,24.4l38.2,59.5C207.3,105.3,209,107.4,210.7,108.9z"/>
</g>
<g>
	<path class="st0" d="M9.8,182v6.4c0,1,0.1,1.7,0.3,2.1c0.2,0.5,0.6,0.8,1.1,0.9c0.5,0.1,1.4,0.2,2.5,0.3v0.8
		c-3-0.1-5.2-0.1-6.7-0.1c-1.2,0-2.8,0-4.6,0.1l-1.2,0v-0.7c0.8,0,1.4-0.1,1.8-0.3c0.4-0.1,0.6-0.4,0.8-0.8s0.2-1.1,0.2-2v-18.2
		c0-0.9-0.1-1.6-0.2-2s-0.4-0.7-0.8-0.8c-0.4-0.1-1-0.2-1.8-0.3v-0.7c1.2,0.1,3.1,0.1,5.6,0.1l4.1,0c0.5,0,1,0,1.7,0
		c3.3,0,5.8,0.7,7.5,2c1.7,1.3,2.6,3.1,2.6,5.3c0,1.3-0.3,2.6-1,3.9c-0.7,1.2-1.8,2.3-3.5,3.1c-1.6,0.8-3.8,1.2-6.5,1.2H9.8z
		 M10.6,167.5c-0.3,0.2-0.5,0.5-0.6,0.9c-0.1,0.4-0.2,1.1-0.2,2v10.8h1.6c2,0,3.3-0.6,4.1-1.9c0.8-1.3,1.1-3,1.1-5.2
		c0-2.4-0.3-4.1-1-5.2c-0.7-1.1-1.9-1.7-3.5-1.7C11.4,167.2,10.9,167.3,10.6,167.5z"/>
	<path class="st0" d="M39.4,187l0.7,0.2c-0.5,1.6-1.4,2.9-2.6,4c-1.3,1.1-2.8,1.7-4.7,1.7c-2.6,0-4.6-0.8-6.2-2.5
		c-1.5-1.6-2.3-4.1-2.3-7.3c0-3.3,0.8-5.8,2.5-7.6c1.6-1.7,3.8-2.6,6.5-2.6c4.6,0,6.9,2.7,6.9,8.1H29.8c0,0.4,0,0.9,0,1.7
		c0,1.6,0.2,3,0.7,4c0.5,1.1,1,1.9,1.8,2.3c0.7,0.5,1.5,0.7,2.3,0.7C36.6,189.9,38.2,189,39.4,187z M30.8,175.4
		c-0.6,1.1-0.9,2.8-1.1,5h5.8c0-1.9-0.1-3.5-0.6-4.8s-1.1-1.9-1.9-1.9C32.1,173.7,31.4,174.3,30.8,175.4z"/>
	<path class="st0" d="M49.7,173.5H54v0.7h-4.3V189c0,0.7,0.1,1.3,0.4,1.6c0.3,0.3,0.7,0.5,1.2,0.5c1,0,1.9-0.7,2.5-2.2l0.6,0.3
		c-0.9,2.5-2.6,3.8-5,3.8c-1.6,0-2.8-0.4-3.7-1.2c-0.5-0.5-0.9-1.2-1-1.9s-0.3-1.8-0.3-3.2v-12.4h-3.1v-0.7h3.1v-4.8
		c2,0,3.8-0.4,5.3-1.2V173.5z"/>
	<path class="st0" d="M70.6,187l0.7,0.2c-0.5,1.6-1.4,2.9-2.6,4c-1.3,1.1-2.8,1.7-4.7,1.7c-2.6,0-4.6-0.8-6.2-2.5
		c-1.5-1.6-2.3-4.1-2.3-7.3c0-3.3,0.8-5.8,2.5-7.6c1.6-1.7,3.8-2.6,6.5-2.6c4.6,0,6.9,2.7,6.9,8.1H61c0,0.4,0,0.9,0,1.7
		c0,1.6,0.2,3,0.7,4c0.5,1.1,1,1.9,1.8,2.3c0.7,0.5,1.5,0.7,2.3,0.7C67.8,189.9,69.4,189,70.6,187z M62,175.4
		c-0.6,1.1-0.9,2.8-1.1,5h5.8c0-1.9-0.1-3.5-0.6-4.8s-1.1-1.9-1.9-1.9C63.3,173.7,62.6,174.3,62,175.4z"/>
	<path class="st0" d="M88.3,174c0.6,0.7,0.8,1.5,0.8,2.4c0,0.9-0.3,1.6-0.8,2.2c-0.5,0.6-1.2,0.9-2.1,0.9c-0.8,0-1.5-0.2-2-0.6
		c-0.5-0.4-0.7-1-0.7-1.7c0-1.2,0.5-2.1,1.6-2.9c-0.1,0-0.2,0-0.4,0c-0.2,0-0.4,0-0.6,0.1c-0.9,0.1-1.7,0.7-2.4,1.7c-0.6,1-1,2-1,3
		v9.7c0,1.1,0.3,1.9,0.8,2.3c0.5,0.4,1.4,0.7,2.6,0.7v0.8c-0.3,0-0.6,0-0.8,0c-2.5-0.1-4.2-0.1-5-0.1c-0.7,0-2.2,0-4.5,0.1
		c-0.2,0-0.4,0-0.7,0v-0.8c0.9,0,1.5-0.2,1.8-0.6c0.3-0.4,0.5-1.1,0.5-2.1v-11.5c0-1.1-0.2-1.9-0.5-2.5c-0.3-0.5-1-0.8-1.8-0.8v-0.8
		c0.8,0.1,1.5,0.1,2.3,0.1c2.2,0,4-0.2,5.3-0.5v3.4c0.5-1.1,1.1-1.9,2-2.5c0.9-0.6,1.9-1,3-1S87.8,173.3,88.3,174z"/>
	<path class="st0" d="M122.3,190.8c0.4,0.3,0.9,0.6,1.5,0.9v0.7c-1.7-0.1-3.6-0.1-5.7-0.1c-1.6,0-3.2,0-4.7,0.1v-0.7
		c0.7,0,1.2-0.1,1.5-0.2c0.3-0.1,0.5-0.3,0.5-0.5c0-0.2-0.1-0.5-0.4-0.9l-5.3-8.6c-0.5-0.8-0.9-1.3-1.2-1.6
		c-0.3-0.3-0.8-0.4-1.3-0.5v9.2c0,0.9,0.1,1.6,0.2,2s0.4,0.7,0.8,0.8c0.4,0.1,1,0.2,1.8,0.3v0.7c-1.3-0.1-3.2-0.1-5.5-0.1
		c-2.6,0-4.5,0-5.8,0.1v-0.7c0.8,0,1.4-0.1,1.8-0.3c0.4-0.1,0.6-0.4,0.8-0.8s0.2-1.1,0.2-2v-18.2c0-0.9-0.1-1.6-0.2-2
		s-0.4-0.7-0.8-0.8c-0.4-0.1-1-0.2-1.8-0.3v-0.7c1.2,0.1,3.2,0.1,5.8,0.1c2.4,0,4.2,0,5.5-0.1v0.7c-0.8,0-1.4,0.1-1.8,0.3
		c-0.4,0.1-0.6,0.4-0.8,0.8s-0.2,1.1-0.2,2v8.2c1,0,1.9-0.3,2.7-0.9c0.8-0.5,1.7-1.4,2.7-2.6l2.2-2.6c1.1-1.3,1.7-2.4,1.7-3.4
		c0-0.6-0.2-1-0.7-1.4c-0.5-0.3-1.1-0.5-2-0.6v-0.7c1.8,0.1,3.6,0.1,5.4,0.1c1.4,0,2.6,0,3.4-0.1v0.7c-2,0.5-3.7,1.6-5.3,3.5
		l-4.6,5.5l8.5,13.3C121.5,190,121.9,190.5,122.3,190.8z"/>
	<path class="st0" d="M139.4,174c0.6,0.7,0.8,1.5,0.8,2.4c0,0.9-0.3,1.6-0.8,2.2c-0.5,0.6-1.2,0.9-2.1,0.9c-0.8,0-1.5-0.2-2-0.6
		c-0.5-0.4-0.7-1-0.7-1.7c0-1.2,0.5-2.1,1.6-2.9c-0.1,0-0.2,0-0.4,0c-0.2,0-0.4,0-0.6,0.1c-0.9,0.1-1.7,0.7-2.4,1.7c-0.6,1-1,2-1,3
		v9.7c0,1.1,0.3,1.9,0.8,2.3c0.5,0.4,1.4,0.7,2.6,0.7v0.8c-0.3,0-0.6,0-0.8,0c-2.5-0.1-4.2-0.1-5-0.1c-0.7,0-2.2,0-4.5,0.1
		c-0.2,0-0.4,0-0.7,0v-0.8c0.9,0,1.5-0.2,1.8-0.6c0.3-0.4,0.5-1.1,0.5-2.1v-11.5c0-1.1-0.2-1.9-0.5-2.5c-0.3-0.5-1-0.8-1.8-0.8v-0.8
		c0.8,0.1,1.5,0.1,2.3,0.1c2.2,0,4-0.2,5.3-0.5v3.4c0.5-1.1,1.1-1.9,2-2.5c0.9-0.6,1.9-1,3-1S138.8,173.3,139.4,174z"/>
	<path class="st0" d="M159.6,188.4c0,1.1,0.2,1.9,0.5,2.5c0.4,0.5,1,0.8,1.8,0.8v0.8c-0.8-0.1-1.5-0.1-2.3-0.1
		c-2.1,0-3.9,0.2-5.3,0.5v-3.3c-1.1,2.3-3.1,3.4-5.9,3.4c-1.8,0-3.2-0.5-4-1.4c-0.4-0.5-0.7-1.1-0.9-1.8c-0.2-0.7-0.3-1.7-0.3-2.9
		v-9.3c0-1.1-0.2-1.9-0.5-2.5c-0.4-0.5-1-0.8-1.8-0.8v-0.8c0.8,0.1,1.5,0.1,2.3,0.1c2.1,0,3.9-0.2,5.3-0.5v15.2c0,1,0.2,1.8,0.5,2.3
		c0.3,0.5,0.9,0.8,1.7,0.8c1,0,1.8-0.4,2.5-1.2s1-1.8,1-3v-9.6c0-1.1-0.2-1.9-0.5-2.5c-0.4-0.5-1-0.8-1.8-0.8v-0.8
		c0.8,0.1,1.5,0.1,2.3,0.1c2.1,0,3.9-0.2,5.3-0.5V188.4z M148.9,165.4c0.6,0.5,0.8,1.2,0.8,1.9c0,0.8-0.3,1.4-0.8,1.9
		c-0.6,0.5-1.2,0.8-1.9,0.8c-0.8,0-1.4-0.3-1.9-0.8s-0.8-1.2-0.8-1.9c0-0.7,0.3-1.4,0.8-1.9c0.5-0.5,1.2-0.8,1.9-0.8
		C147.7,164.6,148.3,164.9,148.9,165.4z M157.2,165.4c0.5,0.5,0.8,1.2,0.8,1.9c0,0.8-0.3,1.4-0.8,1.9c-0.5,0.5-1.2,0.8-1.9,0.8
		c-0.8,0-1.4-0.3-2-0.8c-0.5-0.5-0.8-1.2-0.8-1.9c0-0.7,0.3-1.4,0.8-1.9c0.5-0.5,1.2-0.8,2-0.8C156,164.6,156.7,164.9,157.2,165.4z"
		/>
	<path class="st0" d="M179.7,176.5c-0.3-0.3-0.5-0.8-0.5-1.4c0-0.6,0.1-1.2,0.4-1.8c-0.6,0.2-1.1,0.5-1.4,0.8
		c-0.4,0.3-0.7,0.7-1,1.2c0.8,0.9,1.1,2.1,1.1,3.5c0,1.9-0.7,3.4-2,4.4c-1.3,1-3.1,1.5-5.3,1.5h-0.7c-1,0.6-1.5,1.2-1.5,1.9
		c0,0.8,0.5,1.2,1.5,1.2h4c2.1,0,3.9,0.4,5.1,1.2c1.3,0.8,1.9,2,1.9,3.6c0,1.2-0.4,2.4-1.2,3.4c-0.8,1-2,1.8-3.6,2.4
		c-1.6,0.6-3.6,0.9-5.9,0.9c-2.4,0-4.3-0.3-5.7-0.9c-1.4-0.6-2.1-1.5-2.1-2.6c0-0.8,0.3-1.4,1-2c0.7-0.6,1.7-1.1,3-1.4l0.3,0.6
		c-0.9,0.7-1.3,1.6-1.3,2.5c0,1,0.5,1.8,1.4,2.4c0.9,0.5,2.2,0.8,3.8,0.8c1.7,0,3.1-0.3,4.2-1s1.6-1.6,1.6-2.9
		c0-0.8-0.3-1.4-0.9-1.9c-0.6-0.5-1.6-0.7-3.1-0.7h-2.3c-1.6,0-2.8-0.3-3.7-0.8s-1.3-1.3-1.3-2.4c0-0.9,0.3-1.7,1-2.4
		c0.6-0.7,1.6-1.4,2.9-2.1c-1.8-0.2-3.2-0.8-4.2-1.8c-1-1-1.5-2.3-1.5-4c0-1.9,0.7-3.4,2-4.4c1.3-1,3.1-1.5,5.3-1.5
		c2.4,0,4.3,0.6,5.6,1.7c0.5-0.7,1-1.2,1.7-1.6c0.7-0.4,1.4-0.6,2.1-0.6c0.7,0,1.3,0.2,1.7,0.6c0.4,0.4,0.6,1,0.6,1.7
		c0,0.7-0.2,1.2-0.6,1.6c-0.4,0.4-0.8,0.6-1.3,0.6C180.5,177,180.1,176.8,179.7,176.5z M172.6,182.8c0.4-0.8,0.5-2.1,0.5-4
		c0-1.9-0.2-3.2-0.5-4c-0.4-0.8-0.9-1.2-1.6-1.2c-0.7,0-1.2,0.4-1.6,1.2c-0.4,0.8-0.5,2.1-0.5,4c0,1.9,0.2,3.2,0.5,4
		c0.4,0.8,0.9,1.2,1.6,1.2C171.7,184,172.3,183.6,172.6,182.8z"/>
	<path class="st0" d="M198.9,187l0.7,0.2c-0.5,1.6-1.4,2.9-2.6,4c-1.3,1.1-2.8,1.7-4.7,1.7c-2.6,0-4.6-0.8-6.2-2.5
		c-1.5-1.6-2.3-4.1-2.3-7.3c0-3.3,0.8-5.8,2.5-7.6c1.6-1.7,3.8-2.6,6.5-2.6c4.6,0,6.9,2.7,6.9,8.1h-10.3c0,0.4,0,0.9,0,1.7
		c0,1.6,0.2,3,0.7,4c0.5,1.1,1,1.9,1.8,2.3c0.7,0.5,1.5,0.7,2.3,0.7C196,189.9,197.7,189,198.9,187z M190.3,175.4
		c-0.6,1.1-0.9,2.8-1.1,5h5.8c0-1.9-0.1-3.5-0.6-4.8c-0.4-1.3-1.1-1.9-1.9-1.9C191.6,173.7,190.9,174.3,190.3,175.4z"/>
	<path class="st0" d="M216.6,174c0.6,0.7,0.8,1.5,0.8,2.4c0,0.9-0.3,1.6-0.8,2.2c-0.5,0.6-1.2,0.9-2.1,0.9c-0.8,0-1.5-0.2-2-0.6
		c-0.5-0.4-0.7-1-0.7-1.7c0-1.2,0.5-2.1,1.6-2.9c-0.1,0-0.2,0-0.4,0c-0.2,0-0.4,0-0.6,0.1c-0.9,0.1-1.7,0.7-2.4,1.7c-0.6,1-1,2-1,3
		v9.7c0,1.1,0.3,1.9,0.8,2.3c0.5,0.4,1.4,0.7,2.6,0.7v0.8c-0.3,0-0.6,0-0.8,0c-2.5-0.1-4.2-0.1-5-0.1c-0.7,0-2.2,0-4.5,0.1
		c-0.2,0-0.4,0-0.7,0v-0.8c0.9,0,1.5-0.2,1.8-0.6s0.5-1.1,0.5-2.1v-11.5c0-1.1-0.2-1.9-0.5-2.5s-1-0.8-1.8-0.8v-0.8
		c0.8,0.1,1.5,0.1,2.3,0.1c2.2,0,4-0.2,5.3-0.5v3.4c0.5-1.1,1.1-1.9,2-2.5c0.9-0.6,1.9-1,3-1C215.2,173,216,173.3,216.6,174z"/>
	<path class="st0" d="M14.9,211.2c0.8,0.3,1.7,0.9,2.6,1.5c0.3,0.2,0.5,0.3,0.6,0.3c0.4,0,0.7-0.6,0.8-1.9h0.7
		c-0.1,1.4-0.1,3.8-0.1,7.2h-0.7c-0.2-1.1-0.4-2-0.6-2.8c-0.2-0.7-0.5-1.4-1-1.9c-0.6-0.8-1.4-1.4-2.4-1.8c-1-0.4-2-0.7-3.1-0.7
		c-1.4,0-2.6,0.5-3.7,1.4c-1.1,0.9-1.9,2.2-2.4,3.9c-0.6,1.7-0.9,3.6-0.9,5.8c0,3.8,0.6,6.5,1.8,8.3c1.2,1.8,3.1,2.6,5.7,2.6
		c1.3,0,2.4-0.3,3.3-1c0.4-0.3,0.6-0.5,0.7-0.7c0.1-0.2,0.2-0.6,0.2-1v-3c0-0.9-0.1-1.5-0.3-1.9c-0.2-0.4-0.5-0.7-0.9-0.8
		c-0.4-0.1-1.1-0.2-2-0.3v-0.6c1.1,0.1,2.6,0.1,4.4,0.1c1.4,0,2.5,0,3.3-0.1v0.6c-0.5,0-0.8,0.1-1.1,0.3c-0.2,0.1-0.4,0.4-0.4,0.7
		c-0.1,0.4-0.1,0.9-0.1,1.7v6.2h-0.6c0-0.4-0.1-0.8-0.3-1.2c-0.1-0.4-0.3-0.6-0.6-0.6c-0.1,0-0.3,0-0.4,0.1
		c-0.1,0.1-0.3,0.2-0.7,0.4c-0.7,0.6-1.5,1-2.3,1.3c-0.8,0.3-1.7,0.4-2.6,0.4c-2.2,0-4-0.4-5.6-1.3s-2.7-2.2-3.5-3.9
		c-0.8-1.7-1.2-3.7-1.2-6c0-2.4,0.4-4.5,1.3-6.3c0.9-1.8,2.1-3.2,3.6-4.2c1.5-1,3.3-1.5,5.2-1.5C13.1,210.7,14.1,210.9,14.9,211.2z"
		/>
	<path class="st0" d="M36,218.9c1.3,1.4,2,3.6,2,6.4c0,2.9-0.7,5-2,6.4c-1.3,1.4-3,2.1-5.2,2.1s-3.9-0.7-5.2-2.1
		c-1.3-1.4-2-3.5-2-6.4c0-2.9,0.7-5,2-6.4c1.3-1.4,3-2.1,5.2-2.1S34.6,217.5,36,218.9z M27.8,219.3c-0.7,1.3-1.1,3.3-1.1,6
		s0.4,4.7,1.1,6c0.7,1.3,1.7,1.9,3,1.9c1.3,0,2.3-0.6,3-1.9c0.7-1.3,1.1-3.3,1.1-6s-0.4-4.7-1.1-6c-0.7-1.3-1.7-1.9-3-1.9
		C29.5,217.4,28.5,218,27.8,219.3z"/>
	<path class="st0" d="M54.6,230c0,1,0.2,1.7,0.5,2.1c0.4,0.4,1,0.7,1.9,0.7v0.7c-0.7-0.1-1.3-0.1-2-0.1c-1.3,0-2.4,0.1-3.3,0.4v-3.7
		c-0.5,1.3-1.2,2.3-2.1,2.9c-0.9,0.6-1.9,0.9-3,0.9c-1.4,0-2.5-0.4-3.3-1.2c-0.4-0.4-0.6-1-0.8-1.6c-0.2-0.7-0.2-1.5-0.2-2.5v-7.9
		c0-1-0.2-1.7-0.5-2.1c-0.4-0.4-1-0.7-1.9-0.7v-0.7c0.7,0.1,1.3,0.1,2,0.1c1.3,0,2.4-0.1,3.3-0.4v12.4c0,0.8,0,1.4,0.1,1.9
		c0.1,0.5,0.3,0.9,0.7,1.2c0.3,0.3,0.9,0.5,1.6,0.5c0.8,0,1.5-0.3,2.2-0.8s1.2-1.2,1.5-2.1c0.4-0.9,0.6-1.8,0.6-2.9v-6.5
		c0-1-0.2-1.7-0.5-2.1c-0.4-0.4-1-0.7-1.9-0.7v-0.7c0.7,0.1,1.3,0.1,2,0.1c1.3,0,2.4-0.1,3.3-0.4V230z"/>
	<path class="st0" d="M70.5,217.5c0.5,0.5,0.8,1.1,0.8,1.8c0,0.5-0.2,1-0.5,1.4c-0.3,0.4-0.8,0.6-1.3,0.6c-0.5,0-0.9-0.1-1.2-0.4
		c-0.3-0.3-0.5-0.7-0.5-1.2c0-0.7,0.4-1.3,1.1-1.7c-0.1-0.2-0.4-0.3-0.7-0.3c-0.8,0-1.6,0.3-2.2,1c-0.7,0.6-1.2,1.4-1.6,2.3
		c-0.4,0.9-0.6,1.8-0.6,2.6v6.7c0,1,0.3,1.6,0.8,2c0.6,0.4,1.4,0.6,2.5,0.6v0.7l-0.8,0c-2.1-0.1-3.5-0.1-4.1-0.1
		c-0.5,0-1.8,0-3.7,0.1v-0.7c0.9,0,1.5-0.2,1.9-0.5c0.4-0.3,0.5-0.9,0.5-1.8v-9.9c0-1-0.2-1.7-0.5-2.1c-0.4-0.4-1-0.7-1.9-0.7v-0.7
		c0.7,0.1,1.3,0.1,2,0.1c1.3,0,2.4-0.1,3.3-0.4v3.9c0.4-1,1-2,1.8-2.8c0.8-0.8,1.7-1.2,2.8-1.2C69.3,216.8,69.9,217,70.5,217.5z"/>
	<path class="st0" d="M97.4,232.3c0.4,0.3,1,0.5,1.9,0.5v0.7c-1.9-0.1-3.2-0.1-3.8-0.1c-0.6,0-1.8,0-3.5,0.1v-0.7
		c0.8,0,1.3-0.2,1.6-0.5c0.3-0.3,0.5-0.9,0.5-1.8v-9.1c0-0.8,0-1.4-0.1-1.9c-0.1-0.5-0.3-0.9-0.7-1.2c-0.3-0.3-0.9-0.5-1.6-0.5
		c-0.8,0-1.5,0.3-2.2,0.8c-0.7,0.5-1.2,1.2-1.5,2.1c-0.4,0.9-0.6,1.8-0.6,2.9v7c0,0.9,0.2,1.5,0.5,1.8c0.4,0.3,1,0.5,1.9,0.5v0.7
		c-1.9-0.1-3.2-0.1-3.8-0.1s-1.8,0-3.5,0.1v-0.7c0.8,0,1.3-0.2,1.6-0.5c0.3-0.3,0.5-0.9,0.5-1.8v-9.1c0-0.8,0-1.4-0.1-1.9
		c-0.1-0.5-0.3-0.9-0.7-1.2c-0.3-0.3-0.9-0.5-1.6-0.5c-0.8,0-1.5,0.3-2.2,0.8c-0.7,0.5-1.2,1.2-1.5,2.1c-0.4,0.9-0.6,1.8-0.6,2.9v7
		c0,0.9,0.2,1.5,0.5,1.8c0.3,0.3,0.8,0.5,1.6,0.5v0.7c-1.8-0.1-2.9-0.1-3.5-0.1s-1.8,0-3.8,0.1v-0.7c0.9,0,1.5-0.2,1.9-0.5
		c0.4-0.3,0.5-0.9,0.5-1.8v-9.9c0-1-0.2-1.7-0.5-2.1c-0.4-0.4-1-0.7-1.9-0.7v-0.7c0.7,0.1,1.3,0.1,2,0.1c1.3,0,2.4-0.1,3.3-0.4v3.7
		c0.5-1.3,1.2-2.3,2.1-2.9c0.9-0.6,1.9-0.9,3-0.9c1.4,0,2.5,0.4,3.3,1.2c0.5,0.5,0.9,1.4,1,2.5c0.5-1.3,1.2-2.3,2.2-2.9
		c0.9-0.6,1.9-0.9,3.1-0.9c1.4,0,2.5,0.4,3.3,1.2c0.4,0.4,0.6,1,0.8,1.6c0.2,0.7,0.2,1.5,0.2,2.5v8.4C96.8,231.4,97,232,97.4,232.3z
		"/>
	<path class="st0" d="M114.3,229.7c-0.4,1.2-1.1,2.1-2.1,3c-1,0.8-2.3,1.2-3.8,1.2c-1.5,0-2.8-0.3-3.9-1c-1.1-0.7-1.9-1.6-2.5-2.9
		c-0.6-1.2-0.9-2.7-0.9-4.3c0-1.8,0.3-3.4,0.9-4.8c0.6-1.3,1.4-2.4,2.5-3.1c1.1-0.7,2.3-1.1,3.7-1.1c1.9,0,3.3,0.6,4.4,1.7
		s1.5,2.9,1.5,5.2h-9.9c-0.1,0.6-0.1,1.3-0.1,2c0,1.4,0.2,2.6,0.7,3.6s1,1.8,1.8,2.4c0.7,0.6,1.5,0.8,2.3,0.8c1,0,1.9-0.2,2.7-0.7
		c0.8-0.5,1.4-1.3,2-2.4L114.3,229.7z M105.6,218.8c-0.7,1-1.2,2.4-1.3,4.3h6.9c0-1.6-0.2-3-0.7-4.1s-1.3-1.6-2.3-1.6
		C107.2,217.4,106.3,217.8,105.6,218.8z"/>
	<path class="st0" d="M121.6,217.2h4.7v0.6h-4.7v12.2c0,0.9,0.2,1.6,0.5,2c0.3,0.4,0.8,0.6,1.5,0.6c0.7,0,1.2-0.3,1.7-0.8
		c0.5-0.5,0.9-1.4,1.2-2.6l0.6,0.2c-0.5,2.9-1.9,4.3-4.1,4.3c-0.7,0-1.3-0.1-1.8-0.3c-0.5-0.2-0.9-0.4-1.2-0.8c-0.5-0.5-0.8-1-1-1.7
		c-0.2-0.7-0.3-1.6-0.3-2.7v-10.6h-3v-0.6h3v-4.8c1.2,0,2.1-0.2,2.8-0.4V217.2z"/>
	<path class="st0" d="M140.3,225.9H129V224h11.4V225.9z"/>
	<path class="st0" d="M160.9,215.2c0,1,0,1.9,0.1,2.6h-0.7c-0.2-1.6-0.4-2.8-0.6-3.6c-0.3-0.8-0.7-1.4-1.3-1.7
		c-0.6-0.4-1.6-0.6-2.9-0.6h-1.7v17.9c0,0.9,0.1,1.5,0.3,1.9c0.2,0.4,0.5,0.7,0.9,0.8c0.4,0.1,1.1,0.2,2,0.3v0.6
		c-1.1-0.1-2.6-0.1-4.6-0.1c-2.1,0-3.7,0-4.7,0.1v-0.6c0.9,0,1.6-0.1,2-0.3c0.4-0.1,0.7-0.4,0.9-0.8c0.2-0.4,0.3-1,0.3-1.9v-17.9
		h-1.7c-1.3,0-2.3,0.2-2.9,0.6c-0.6,0.4-1.1,0.9-1.3,1.7c-0.3,0.8-0.5,2-0.6,3.6h-0.7c0.1-0.7,0.1-1.5,0.1-2.6c0-1.2-0.1-2.5-0.2-4
		c1.7,0.1,4.7,0.1,8.9,0.1c4.2,0,7.1,0,8.9-0.1C161,212.6,160.9,214,160.9,215.2z"/>
	<path class="st0" d="M168.2,230.5c0,0.9,0.2,1.5,0.5,1.8c0.4,0.3,1,0.5,1.9,0.5v0.7c-1.9-0.1-3.2-0.1-3.8-0.1c-0.6,0-1.9,0-3.8,0.1
		v-0.7c0.9,0,1.5-0.2,1.9-0.5c0.4-0.3,0.5-0.9,0.5-1.8v-9.9c0-1-0.2-1.7-0.5-2.1c-0.4-0.4-1-0.7-1.9-0.7v-0.7c0.7,0.1,1.3,0.1,2,0.1
		c1.3,0,2.4-0.1,3.3-0.4V230.5z M168,209.9c0.4,0.4,0.6,0.9,0.6,1.4s-0.2,1-0.6,1.4c-0.4,0.4-0.9,0.6-1.4,0.6c-0.5,0-1-0.2-1.4-0.6
		c-0.4-0.4-0.6-0.9-0.6-1.4s0.2-1,0.6-1.4c0.4-0.4,0.9-0.6,1.4-0.6C167.1,209.3,167.6,209.5,168,209.9z"/>
	<path class="st0" d="M179.9,217.1c0.6,0.2,1.1,0.5,1.4,0.8c0.2,0.2,0.4,0.3,0.6,0.3c0.4,0,0.6-0.5,0.7-1.4h0.7
		c-0.1,1-0.1,2.8-0.1,5.4h-0.7c-0.2-1.4-0.7-2.5-1.3-3.4c-0.7-0.9-1.6-1.4-2.9-1.4c-0.8,0-1.4,0.2-1.9,0.6c-0.5,0.4-0.7,1-0.7,1.8
		c0,0.7,0.3,1.3,0.8,1.8c0.5,0.5,1.3,1.1,2.4,1.8c0.2,0.1,0.5,0.3,0.9,0.5c1,0.6,1.7,1.2,2.3,1.7c0.6,0.5,1.1,1,1.4,1.7
		c0.4,0.6,0.6,1.4,0.6,2.2c0,1.4-0.5,2.5-1.6,3.2c-1,0.8-2.3,1.2-3.8,1.2c-0.9,0-1.8-0.1-2.5-0.4c-0.5-0.2-0.9-0.5-1.3-0.9
		c-0.1-0.1-0.2-0.1-0.3-0.1c-0.1,0-0.3,0.1-0.4,0.3c-0.1,0.2-0.2,0.5-0.3,0.9h-0.7c0.1-1.2,0.1-3.3,0.1-6.3h0.7
		c0.2,2,0.7,3.4,1.3,4.4c0.6,1,1.6,1.5,3.1,1.5c0.7,0,1.4-0.2,2-0.7c0.6-0.5,0.9-1.2,0.9-2.3c0-0.8-0.3-1.5-0.8-2.1
		c-0.6-0.6-1.5-1.2-2.7-2c-1-0.7-1.8-1.2-2.4-1.6c-0.6-0.4-1-0.9-1.4-1.5c-0.4-0.6-0.6-1.3-0.6-2.1c0-1.3,0.4-2.3,1.3-3
		c0.9-0.7,2-1,3.3-1C178.6,216.8,179.3,216.9,179.9,217.1z"/>
	<path class="st0" d="M197.8,217.8c1,0.7,1.5,1.5,1.5,2.4c0,0.5-0.2,1-0.5,1.3c-0.3,0.3-0.7,0.5-1.2,0.5c-0.5,0-0.9-0.1-1.2-0.4
		c-0.3-0.3-0.5-0.7-0.5-1.1c0-0.4,0.1-0.8,0.4-1.1s0.6-0.5,0.9-0.6c-0.2-0.4-0.6-0.7-1.1-0.9c-0.5-0.3-1.1-0.4-1.7-0.4
		c-0.8,0-1.5,0.2-2.2,0.7c-0.7,0.5-1.2,1.3-1.7,2.5s-0.7,2.7-0.7,4.5c0,2.6,0.4,4.5,1.3,5.7s1.9,1.8,3.3,1.8c0.9,0,1.8-0.3,2.6-0.8
		c0.8-0.5,1.5-1.3,2-2.5l0.6,0.2c-0.4,1.2-1,2.2-2,3.1c-1,0.9-2.2,1.3-3.8,1.3c-1.3,0-2.5-0.3-3.5-1c-1.1-0.7-1.9-1.6-2.5-2.9
		s-0.9-2.7-0.9-4.4c0-1.7,0.3-3.2,0.9-4.5s1.5-2.4,2.6-3.1s2.4-1.1,3.8-1.1C195.6,216.8,196.8,217.1,197.8,217.8z"/>
	<path class="st0" d="M206.5,220.5c0.5-1.3,1.3-2.3,2.2-2.9s2-0.9,3.2-0.9c1.5,0,2.6,0.4,3.3,1.2c0.4,0.4,0.7,0.9,0.9,1.6
		s0.3,1.5,0.3,2.6v8.4c0,0.9,0.2,1.5,0.5,1.8c0.4,0.3,1,0.5,1.9,0.5v0.7c-1.9-0.1-3.2-0.1-3.8-0.1s-1.8,0-3.5,0.1v-0.7
		c0.8,0,1.3-0.2,1.6-0.5c0.3-0.3,0.5-0.9,0.5-1.8v-9.1c0-1.2-0.2-2.1-0.5-2.7c-0.3-0.6-1-0.9-2-0.9c-0.9,0-1.6,0.2-2.3,0.7
		s-1.2,1.2-1.6,2c-0.4,0.9-0.6,1.9-0.6,2.9v7c0,0.9,0.2,1.5,0.5,1.8s0.8,0.5,1.6,0.5v0.7c-1.8-0.1-2.9-0.1-3.5-0.1s-1.8,0-3.8,0.1
		v-0.7c0.9,0,1.5-0.2,1.9-0.5s0.5-0.9,0.5-1.8v-18c0-1-0.2-1.7-0.5-2.1c-0.4-0.4-1-0.7-1.9-0.7v-0.7c0.7,0.1,1.3,0.1,2,0.1
		c1.3,0,2.4-0.1,3.3-0.4V220.5z"/>
</g>
<rect y="135.7" class="st1" width="217.2" height="8.2"/>
</svg>
