<?xml version="1.0" encoding="UTF-8"?>
<svg width="25px" height="26px" viewBox="0 0 25 26" version="1.1" xmlns="http://www.w3.org/2000/svg" xmlns:xlink="http://www.w3.org/1999/xlink">
    <!-- Generator: Sketch 63.1 (92452) - https://sketch.com -->
    <title>marker.svg</title>
    <desc>Created with Sketch.</desc>
    <g id="Page-1" stroke="none" stroke-width="1" fill="none" fill-rule="evenodd">
        <g id="icon" fill="#111B3C" fill-rule="nonzero">
            <path d="M24.046,14.254 C23.969,14.629 23.713,14.979 23.242,14.866 C21.547,14.465 18.891,14.345 17.318,14.726 C16.74,14.866 16.47,14.614 16.253,13.923 C15.712,12.206 14.858,10.136 15.042,7.484 C15.453,1.543 17.906,-0.102 19.754,0.005 C21.602,0.112 26.351,3.049 24.046,14.254 Z M16.444,17.799 C16.444,17.799 16.113,18.83 15.927,20.509 C15.619,23.286 16.216,25.213 18.928,25.603 C21.216,25.933 22.685,24.213 22.991,21.436 C23.176,19.758 23.192,18.687 23.192,18.687 L16.444,17.799 Z" id="Shape"></path>
            <path d="M5.89,0.005 C7.738,-0.101 10.191,1.543 10.602,7.484 C10.786,10.136 9.932,12.207 9.391,13.923 C9.173,14.613 8.904,14.865 8.326,14.726 C6.753,14.345 4.097,14.464 2.402,14.866 C1.931,14.978 1.675,14.629 1.598,14.254 C-0.707,3.049 4.043,0.112 5.89,0.005 Z M2.451,18.687 C2.451,18.687 2.468,19.758 2.652,21.436 C2.959,24.213 4.427,25.933 6.715,25.603 C9.427,25.213 10.024,23.287 9.716,20.509 C9.53,18.83 9.199,17.799 9.199,17.799 L2.451,18.687 Z" id="Shape"></path>
        </g>
    </g>
</svg>